<?xml version="1.0" standalone="no"?>
<!DOCTYPE svg PUBLIC "-//W3C//DTD SVG 20010904//EN"
 "http://www.w3.org/TR/2001/REC-SVG-20010904/DTD/svg10.dtd">
<svg version="1.0" xmlns="http://www.w3.org/2000/svg"
      viewBox="37 151 528 297"
      width="500.000000pt" height="500.000000pt"
      preserveAspectRatio="xMidYMid meet"
      style="background-color:white">
 <!-- width="200.000000pt" height="200.000000pt" viewBox="185 78 250.000000 448.000000"
 preserveAspectRatio="xMidYMid meet" style="background-color:green"> -->
<metadata>
Created by potrace 1.11, written by Peter Selinger 2001-2013
</metadata>

<circle cx = "300" cy = "300" r = "260" fill="#eeeeee" />

<g transform="translate(0.000000,600.000000) scale(0.100000,-0.100000)"
fill="#000000" stroke="none">
<path d="M2880 5174 c-35 -10 -201 -99 -460 -247 -337 -194 -414 -242 -465
-292 -90 -89 -165 -246 -219 -460 -16 -64 -58 -307 -53 -311 1 -2 297 167 657
375 360 207 695 394 743 415 192 82 394 139 571 160 l100 11 -290 167 c-197
114 -308 172 -349 182 -73 20 -162 19 -235 0z"/>
<path d="M3575 4725 c-38 -7 -106 -22 -150 -34 -90 -24 -335 -112 -335 -121 1
-3 294 -174 653 -380 358 -206 686 -400 728 -431 190 -141 370 -318 454 -447
l30 -46 3 319 c3 350 -1 389 -50 487 -58 116 -95 143 -538 398 -232 134 -430
241 -463 252 -70 21 -224 23 -332 3z"/>
<path d="M1500 4395 c-312 -180 -352 -212 -408 -325 -51 -102 -53 -127 -50
-661 3 -492 3 -494 26 -549 61 -144 222 -332 423 -493 53 -42 99 -77 103 -77
3 0 6 348 6 774 0 479 4 804 10 853 29 217 91 446 156 576 19 37 31 67 27 67
-5 0 -136 -74 -293 -165z"/>
<path d="M4400 2930 c0 -647 -3 -797 -15 -881 -33 -219 -86 -411 -151 -543
-19 -39 -34 -71 -34 -72 0 -1 127 71 283 160 314 181 370 225 424 334 52 104
54 127 51 663 l-3 494 -27 62 c-40 94 -122 207 -228 314 -86 86 -278 249 -294
249 -3 0 -6 -351 -6 -780z"/>
<path d="M1040 2409 c0 -354 5 -394 58 -493 57 -107 107 -144 545 -394 251
-144 427 -239 459 -248 119 -31 341 -9 543 54 109 34 265 95 265 103 0 3 -10
10 -22 16 -95 44 -1312 758 -1383 812 -172 130 -317 272 -409 401 -22 30 -43
59 -48 65 -4 5 -8 -137 -8 -316z"/>
<path d="M3665 1764 c-357 -207 -695 -395 -750 -418 -196 -85 -387 -138 -566
-159 l-104 -12 290 -167 c304 -175 358 -198 465 -198 112 0 156 20 580 263
357 205 413 240 470 297 104 105 182 288 234 552 23 116 38 218 33 218 -1 0
-294 -170 -652 -376z"/>
</g>

</svg>
