<svg version="1.1" id="Layer_1" xmlns="http://www.w3.org/2000/svg" xmlns:xlink="http://www.w3.org/1999/xlink" x="0px" y="0px"
	 width="100%" viewBox="0 0 512 512" enable-background="new 0 0 512 512" xml:space="preserve">
<path fill="#000000" opacity="1.000000" stroke="none" 
	d="
M284.000000,513.000000 
	C189.356308,513.000000 95.212616,513.000000 1.034460,513.000000 
	C1.034460,342.397949 1.034460,171.795883 1.034460,1.096914 
	C171.560379,1.096914 342.120819,1.096914 512.840637,1.096914 
	C512.840637,171.666550 512.840637,342.333252 512.840637,513.000000 
	C436.795868,513.000000 360.647919,513.000000 284.000000,513.000000 
M2.999451,262.497681 
	C2.664263,278.117889 4.908649,293.426392 7.900138,308.727997 
	C11.464471,326.959717 17.123390,344.456390 24.790396,361.304596 
	C34.601307,382.864075 46.339863,403.333374 62.489613,420.810272 
	C73.612923,432.847717 84.831841,445.013092 97.394302,455.453217 
	C115.754089,470.711182 136.405121,482.661469 158.522369,491.960358 
	C183.583572,502.496979 209.702820,509.209930 236.714951,510.699219 
	C256.905884,511.812469 277.216339,511.661682 297.478302,508.254944 
	C318.746826,504.678986 339.277893,499.054169 358.914581,490.458344 
	C387.981567,477.734467 413.965942,460.117737 436.494385,437.773102 
	C445.181580,429.156799 452.894226,419.491058 460.507111,409.872986 
	C474.190155,392.585815 484.578583,373.267548 492.876343,352.943787 
	C502.938110,328.299591 509.076630,302.514587 510.783508,275.965088 
	C511.673248,262.125946 510.994049,248.087296 509.810974,234.242371 
	C508.710175,221.360031 506.710175,208.454620 503.856537,195.842102 
	C497.266632,166.716034 484.996796,139.829163 468.415894,115.114952 
	C455.487976,95.845543 439.900146,78.755997 422.200226,63.587433 
	C407.502197,50.991444 391.574097,40.276657 374.536743,31.265636 
	C358.908630,22.999964 342.419159,16.760426 325.369293,11.933738 
	C308.446747,7.143086 291.176819,4.021403 273.725922,3.206074 
	C249.591736,2.078493 225.584946,3.438576 201.748077,8.789817 
	C171.403351,15.602034 143.326996,27.322485 117.385399,44.209492 
	C94.682556,58.988190 75.099754,77.291000 58.078823,98.376892 
	C40.406986,120.269135 27.050009,144.521362 17.494740,170.952026 
	C10.945270,189.068359 6.461715,207.716995 4.192113,226.767838 
	C2.826653,238.229401 3.333824,249.914047 2.999451,262.497681 
z"/>
<path fill="#FFFFFF" opacity="1.000000" stroke="none" 
	d="
M2.999451,261.998047 
	C3.333824,249.914047 2.826653,238.229401 4.192113,226.767838 
	C6.461715,207.716995 10.945270,189.068359 17.494740,170.952026 
	C27.050009,144.521362 40.406986,120.269135 58.078823,98.376892 
	C75.099754,77.291000 94.682556,58.988190 117.385399,44.209492 
	C143.326996,27.322485 171.403351,15.602034 201.748077,8.789817 
	C225.584946,3.438576 249.591736,2.078493 273.725922,3.206074 
	C291.176819,4.021403 308.446747,7.143086 325.369293,11.933738 
	C342.419159,16.760426 358.908630,22.999964 374.536743,31.265636 
	C391.574097,40.276657 407.502197,50.991444 422.200226,63.587433 
	C439.900146,78.755997 455.487976,95.845543 468.415894,115.114952 
	C484.996796,139.829163 497.266632,166.716034 503.856537,195.842102 
	C506.710175,208.454620 508.710175,221.360031 509.810974,234.242371 
	C510.994049,248.087296 511.673248,262.125946 510.783508,275.965088 
	C509.076630,302.514587 502.938110,328.299591 492.876343,352.943787 
	C484.578583,373.267548 474.190155,392.585815 460.507111,409.872986 
	C452.894226,419.491058 445.181580,429.156799 436.494385,437.773102 
	C413.965942,460.117737 387.981567,477.734467 358.914581,490.458344 
	C339.277893,499.054169 318.746826,504.678986 297.478302,508.254944 
	C277.216339,511.661682 256.905884,511.812469 236.714951,510.699219 
	C209.702820,509.209930 183.583572,502.496979 158.522369,491.960358 
	C136.405121,482.661469 115.754089,470.711182 97.394302,455.453217 
	C84.831841,445.013092 73.612923,432.847717 62.489613,420.810272 
	C46.339863,403.333374 34.601307,382.864075 24.790396,361.304596 
	C17.123390,344.456390 11.464471,326.959717 7.900138,308.727997 
	C4.908649,293.426392 2.664263,278.117889 2.999451,261.998047 
M364.427460,212.902267 
	C384.052368,198.247726 405.582703,195.529526 429.397552,203.148483 
	C422.185303,166.308121 406.406769,134.539688 381.853668,106.655869 
	C350.809662,134.428360 320.112793,161.890350 289.235565,189.513641 
	C251.530502,147.411819 214.271347,105.807930 176.808365,63.976437 
	C142.852554,95.525612 122.666504,133.556488 119.398071,178.892197 
	C113.830536,256.118317 146.451706,313.561981 213.900131,351.695618 
	C187.805237,347.279022 167.127350,333.900085 149.186676,314.909760 
	C126.129044,335.558289 103.249489,356.047333 80.111465,376.767853 
	C82.196945,379.054413 83.778221,380.967041 85.540825,382.694702 
	C137.338028,433.464142 199.247879,453.273438 270.311737,439.543488 
	C334.276337,427.185181 381.485016,390.679474 412.099701,332.962280 
	C413.797974,329.760559 413.330872,327.875122 410.982697,325.276093 
	C388.321594,300.194153 365.848236,274.942566 343.186493,249.861221 
	C341.134155,247.589767 341.102905,245.783508 342.089111,243.215378 
	C346.670624,231.284561 353.732971,221.200073 364.427460,212.902267 
M433.356293,254.473923 
	C432.859558,270.998901 429.201477,286.914886 423.014832,303.811584 
	C442.212891,292.951416 460.054993,282.858276 478.319946,272.525909 
	C462.968079,257.949249 447.943329,243.683212 433.385284,229.860306 
	C433.385284,237.696701 433.385284,245.589417 433.356293,254.473923 
M407.031616,251.965515 
	C407.074127,250.972168 407.166443,249.978058 407.151062,248.985611 
	C407.048492,242.385254 402.598511,237.099045 396.334137,236.104401 
	C389.786377,235.064758 383.725159,238.836533 381.656677,245.237869 
	C379.533386,251.808762 383.019379,259.076721 389.447754,261.481506 
	C396.685394,264.189026 403.362885,260.860352 407.031616,251.965515 
z"/>
<path fill="#6A489D" opacity="1.000000" stroke="none" 
	d="
M364.135223,213.106796 
	C353.732971,221.200073 346.670624,231.284561 342.089111,243.215378 
	C341.102905,245.783508 341.134155,247.589767 343.186493,249.861221 
	C365.848236,274.942566 388.321594,300.194153 410.982697,325.276093 
	C413.330872,327.875122 413.797974,329.760559 412.099701,332.962280 
	C381.485016,390.679474 334.276337,427.185181 270.311737,439.543488 
	C199.247879,453.273438 137.338028,433.464142 85.540825,382.694702 
	C83.778221,380.967041 82.196945,379.054413 80.111465,376.767853 
	C103.249489,356.047333 126.129044,335.558289 149.186676,314.909760 
	C167.127350,333.900085 187.805237,347.279022 213.900131,351.695618 
	C146.451706,313.561981 113.830536,256.118317 119.398071,178.892197 
	C122.666504,133.556488 142.852554,95.525612 176.808365,63.976437 
	C214.271347,105.807930 251.530502,147.411819 289.235565,189.513641 
	C320.112793,161.890350 350.809662,134.428360 381.853668,106.655869 
	C406.406769,134.539688 422.185303,166.308121 429.397552,203.148483 
	C405.582703,195.529526 384.052368,198.247726 364.135223,213.106796 
z"/>
<path fill="#FDB717" opacity="1.000000" stroke="none" 
	d="
M433.370789,253.978027 
	C433.385284,245.589417 433.385284,237.696701 433.385284,229.860306 
	C447.943329,243.683212 462.968079,257.949249 478.319946,272.525909 
	C460.054993,282.858276 442.212891,292.951416 423.014832,303.811584 
	C429.201477,286.914886 432.859558,270.998901 433.370789,253.978027 
z"/>
<path fill="#6C4B9E" opacity="1.000000" stroke="none" 
	d="
M406.960480,252.376251 
	C403.362885,260.860352 396.685394,264.189026 389.447754,261.481506 
	C383.019379,259.076721 379.533386,251.808762 381.656677,245.237869 
	C383.725159,238.836533 389.786377,235.064758 396.334137,236.104401 
	C402.598511,237.099045 407.048492,242.385254 407.151062,248.985611 
	C407.166443,249.978058 407.074127,250.972168 406.960480,252.376251 
z"/>
</svg>